<svg id="a9d0f9a4-5f7c-49dc-8400-416795a5f4ca" data-name="圖層 1" xmlns="http://www.w3.org/2000/svg" xmlns:xlink="http://www.w3.org/1999/xlink" viewBox="0 0 762.5 442.63"><defs><linearGradient id="e29f3d50-65ae-403c-8684-ddc40be34bd7" x1="14.67" y1="226.68" x2="771.46" y2="167.44" gradientUnits="userSpaceOnUse"><stop offset="0" stop-color="#d1d973"/><stop offset="1" stop-color="#39ab9f"/></linearGradient><clipPath id="e13cce4b-9ab4-497a-8b1d-52c89881de96"><path d="M.83,45.56,80.56,413c4.11,18.94,22.65,31.71,42.65,29.38L697,375.56c17.94-2.09,32-15.8,33.9-33.05L762.28,58.32c2.39-21.63-15-40.61-37.61-41.16L39.78.73h-1C14.28.72-4.2,22.37.83,45.56" style="fill:url(#e29f3d50-65ae-403c-8684-ddc40be34bd7)"/></clipPath><linearGradient id="bef849bd-6124-4045-98ea-77c698ea270e" x1="-6533.88" y1="833.94" x2="-6534.05" y2="835.72" gradientTransform="matrix(-86.33, -489.58, 489.58, -86.33, -972379.23, -3126583.02)" xlink:href="#e29f3d50-65ae-403c-8684-ddc40be34bd7"/></defs><path d="M.83,45.56,80.56,413c4.11,18.94,22.65,31.71,42.65,29.38L697,375.56c17.94-2.09,32-15.8,33.9-33.05L762.28,58.32c2.39-21.63-15-40.61-37.61-41.16L39.78.73h-1C14.28.72-4.2,22.37.83,45.56" style="fill:url(#e29f3d50-65ae-403c-8684-ddc40be34bd7)"/><g style="clip-path:url(#e13cce4b-9ab4-497a-8b1d-52c89881de96)"><polygon points="843.27 431.3 741.48 -126.29 -82.8 14.1 18.98 571.69 843.27 431.3" style="fill:url(#bef849bd-6124-4045-98ea-77c698ea270e)"/></g></svg>