<svg id="b1a541a9-7ef7-4acd-b2c0-8ce3d00d8fd8" data-name="圖層 1" xmlns="http://www.w3.org/2000/svg" viewBox="0 0 536.95 678.51"><path d="M324.23,47c-11.77,1.11-20.29,10.4-19,20.76S317,85.65,328.8,84.54s20.29-10.4,19-20.76S336,45.93,324.23,47Z" style="fill:#6eb5b7"/><path d="M324.33,54.41c-7.19.67-12.4,6.35-11.63,12.68S319.93,78,327.12,77.33s12.4-6.37,11.63-12.69S331.52,53.73,324.33,54.41Z" style="fill:#f1d280"/><path d="M286.89,136.73C299.5,133.24,300.71,72,300.71,72l25.6-2.62s-5.4,53.12.17,66.79,26.44,17.76,30.36,29.6-28.37,149.56-35.46,158.43-90.9-6.24-93.86-24.46,19.29-134.15,22.87-145.08S270,141.4,286.89,136.73Z" style="fill:#e6b5ab"/><path d="M293.2,44.88c-1.71,1.48-15.5,16.88-12.93,40.53a19.21,19.21,0,0,0-3,.26c-10.43.66-.57,11.08,2.62,12.72,2.08,1.06,4,2.14,5.46,1.16,1.33,2.64,1.17,3.3,3.06,6.12,12.49,19.86,43.23,22.17,51.4-10C347.64,64.71,318.17,23.14,293.2,44.88Z" style="fill:#f0c3bd"/><path d="M226,16.71c-34.79-8.61-62.13-1.94-91.28,43.5-25.43,39.64-105.59,27-81.51,9.59S73.66,84,75.74,82.1C79.09,79,88.66,45,46,52.78,11,59.14,4,107.27,34.51,132s122.43,53.2,147,8.56c21.5-39.07,28-92.89,72.14-78.16,4.48,1.5,11.83,7.34,13.13,6.08C266.77,68.47,279.27,29.89,226,16.71Z" style="fill:#231815"/><path d="M296.3,31C281.46,32.38,256.37,43.64,253,68c-1.95,11.15,2.86,26,10.69,34.53,5.26,5.72,21.69,14.31,33.54,12.41,0,0-3.32-1.79-7.12-8-2.55-4.14-3.18-9.17-4.87-10.11-3.32-1.84,17.17,3.3,33.26-38.26-.41-.75,15,16.85,20.76,11.22C343.25,65.81,342.63,26.61,296.3,31Z" style="fill:#231815"/><path d="M314.15,30.6c-40.84-3.43-46.08,37.1-46.08,37.1s14.32-.38,13.89,1c5.9-35.16,38.2-35.4,38.2-35.4S321.62,30.51,314.15,30.6Z" style="fill:#86c4c6"/><path d="M274.63,60.15c-11.77,1.11-20.29,10.4-19,20.76s11.82,17.85,23.59,16.74,20.29-10.4,19-20.76S286.4,59,274.63,60.15Z" style="fill:#6eb5b7"/><path d="M274.74,67.51c-7.2.68-12.41,6.37-11.64,12.69s7.23,10.91,14.42,10.23,12.41-6.36,11.63-12.69S281.92,66.84,274.74,67.51Z" style="fill:#86c4c6"/><path d="M143,143.26c.85-3.66,19.87-2.44,19.79-1.55,0,0,16.81-8.58,7.77,4.27-1.93,2.75-5.39,11-6.42,18-2.9,25.57,5.2,44,5.46,43.76,20.49-18.77,35.58-41.62,46.78-55,14.41-17.19,28.88-16.12,28.88-16.12l-9.43,57s-52.72,60.8-79.38,53.08c-22.13-6.41-9.57-74.77-10.15-83C146,159,139,160.78,143,143.26Z" style="fill:#f0c3bd"/><path d="M165.17,572.14l26.59,18.16-51.2,54.13s-2.67,14.16-13.49,6.64c-7.54-5.24-5.16-9.43-5.16-9.43Z" style="fill:#f0c3bd"/><path d="M121.84,640.5s7.61,8.09,19.94,2.46c0,0,34.11,12,34.94,19.42,1.34,11.89-53.23.21-58.95-7S121.84,640.5,121.84,640.5Z" style="fill:#231815"/><path d="M142.72,644.44c5.34-.22-6.6,7.33-6.12,5.18C138.48,646.57,142.72,644.44,142.72,644.44Z" style="fill:#ededec"/><path d="M150,647.68c5.31-.21-6.51,7.33-6,5.17C145.76,649.8,150,647.68,150,647.68Z" style="fill:#ededec"/><path d="M156.82,650.32c4.56-.15-5.53,6.5-5.15,4.57C153.23,652.18,156.82,650.32,156.82,650.32Z" style="fill:#ededec"/><path d="M373.13,572l-17.69,68.69s4.93,13.68-8.6,11.3c-9.43-1.65-9.46-6.34-9.46-6.34l2.68-79.2Z" style="fill:#f0c3bd"/><path d="M356.66,643.78s36.44,4.1,39.36,11.12c4.66,11.23-51.5,11.9-59.08,6.19s-.28-15.31-.28-15.31S346.33,651.93,356.66,643.78Z" style="fill:#231815"/><path d="M353.54,651.36C354.49,648,358,645,358,645,363.1,643.61,353.69,653.55,353.54,651.36Z" style="fill:#ededec"/><path d="M361.53,652.89c.92-3.37,4.39-6.34,4.39-6.34C371,645.18,361.69,655.07,361.53,652.89Z" style="fill:#ededec"/><path d="M369.63,653.16c.74-3,3.69-5.56,3.69-5.56C377.69,646.45,369.81,655.11,369.63,653.16Z" style="fill:#ededec"/><path d="M356.6,159.8s24.24,43.31,53.43,70.94c31.46,29.78,88.69,54.83,95.91,59,5.63,3.24,22.78,13.29,20.71,21.46s-20.54-7.23-20.95-6.37c-.15.32,5.26,7.16,1.6,7.16-.77,0-7.36-4.83-9.53-9.7-.85-1.92-2.81-3.39-6.13-4.76-11.69-4.82-68.15-15.75-105.72-42.34-42.45-30-60.88-68.75-61.14-77.89S354.23,157.82,356.6,159.8Z" style="fill:#f0c3bd"/><path d="M310,325.93s96,110.71,93.67,142.14S370,605.32,370,605.32l-34.53-2.79S311.23,516.62,348.14,474c-11.9-14.67-89.69-35.28-120.66-110.71S285,285.07,310,325.93Z" style="fill:#e5c77c"/><path d="M231.06,496.36c-8.34-7.33-56.36-78.23-55.17-128.52s21.34-58,28.37-63.74c16.67-13.62,58.15,11.35,58.15,11.35s31.75,153.67,22.23,191.38S173.5,615.1,173.5,615.1s-19.84-7-29.76-11.87C177.48,502.65,239.39,503.69,231.06,496.36Z" style="fill:#f1d280"/><path d="M218.1,233.42c10.06-26.95,9.6-72.82,11-92.94,16.67-9.78,40.09-7.68,45.44-3,0,0,33.94,31.26,64.59,9.53.26-.18,14.61,3.7,20.17,11.29,6.9,9.39,15.59,32.56,2.55,74.62-18.44,59.45-7.33,74.12-32.73,100.66-32.43,33.89-144.47-7.68-151.61-45.4C171.89,258.72,209.23,281.92,218.1,233.42Z" style="fill:#231815"/><path d="M128.06,113.39c-.47-1.25.85-2.45,2.3-2.09l25,2.17a1.78,1.78,0,0,1,1.23,1l18.66,51.91a1.71,1.71,0,0,1-1.92,2.22L147,167.45a1.84,1.84,0,0,1-1.62-1.13Z" style="fill:#fff"/><path d="M132.88,118.18c-.33-.86.59-1.7,1.58-1.43l21,1.58a1.22,1.22,0,0,1,.83.68l14.22,41.05a1.16,1.16,0,0,1-1.27,1.52l-21.08-.87a1.27,1.27,0,0,1-1.13-.77Z" style="fill:#d8d9d9"/><path d="M134.85,139.65c2.79-1.93,4.74-1.54,5.93-1.13,4.91,1.67,4.46,13,2,15.5a9.55,9.55,0,0,1-1.42,1.19s1.68,3.5,1.26,3.43a9.42,9.42,0,0,1-6.81-6.09C134.37,148.81,131,142.29,134.85,139.65Z" style="fill:#f0c3bd"/></svg>